<svg xmlns="http://www.w3.org/2000/svg" viewBox="0 0 144 144" role="img" aria-label="断桥"><ellipse cx="72" cy="123" rx="53" ry="10" fill="#172f38" opacity="0.15"/><path d="M25 114L70 99 120 113 73 135Z" fill="#254852"/><path d="M25 109L70 94 120 108 73 129Z" fill="#4a8c82"/><path d="M36 110L70 101 109 110 73 122Z" fill="#8fc5b1"/><path d="M27 96L47 78 63 84 63 111 49 106 26 121Z" fill="#816954"/><path d="M87 85L108 78 121 96 118 119 92 108Z" fill="#816954"/><path d="M27 92L48 73 65 80 57 88 64 95 51 95 28 115Z" fill="#d8e6c9"/><path d="M91 78L108 73 122 92 118 113 93 97 100 92 87 89Z" fill="#d8e6c9"/><path d="M69 109L76 93 71 87 80 73 75 107Z" fill="#172f38"/><path d="M27 84L49 64" fill="none" stroke="#b86659" stroke-width="3" stroke-linecap="square"/><path d="M104 64L125 84" fill="none" stroke="#b86659" stroke-width="3" stroke-linecap="square"/><path d="M35 98L53 81" fill="none" stroke="#816954" stroke-width="1" stroke-linecap="square"/><path d="M40 104L60 85" fill="none" stroke="#816954" stroke-width="1" stroke-linecap="square"/><path d="M100 88L114 103" fill="none" stroke="#816954" stroke-width="1" stroke-linecap="square"/></svg>